<svg xmlns="http://www.w3.org/2000/svg" xmlns:xlink="http://www.w3.org/1999/xlink" version="1.1" id="Layer_1" x="0px" y="0px" enable-background="new 0 0 1024 1024" xml:space="preserve" viewBox="217.55 243.75 591.81 467.02">
<path fill="#8F78F8" opacity="1.000000" stroke="none" d=" M803.158203,600.999817   C792.872375,617.848022 778.338013,626.401062 758.763000,626.382324   C693.107239,626.319580 627.451416,626.378479 561.795593,626.385376   C553.953918,626.386169 553.377380,626.944214 553.350647,634.956055   C553.332275,640.455078 553.320251,645.954468 553.358765,651.453308   C553.405396,658.103394 555.427734,660.807312 561.874512,662.461365   C589.551514,669.562317 617.242981,676.606873 644.929932,683.668945   C646.218933,683.997742 647.510742,684.317871 648.809082,684.606873   C662.923035,687.749146 662.652832,690.718628 662.160217,704.415833   C662.014160,708.478760 659.735779,710.543640 655.279602,710.481873   C627.634155,710.098999 599.996643,711.093384 572.338379,710.657654   C536.546753,710.093811 500.737396,710.161865 464.941437,710.524963   C434.638153,710.832214 404.341827,710.835205 374.041870,710.537903   C366.042755,710.459412 364.681122,709.128357 364.665375,701.291565   C364.661011,699.125305 364.634918,696.957886 364.692444,694.792969   C364.821289,689.945435 367.434601,687.180176 372.033325,686.011963   C389.425385,681.593872 406.807190,677.135437 424.196106,672.704895   C437.561920,669.299255 450.938538,665.935730 464.298737,662.508362   C471.247040,660.725891 472.687592,658.847046 472.710876,651.714539   C472.732117,645.215698 472.483093,638.707520 472.760620,632.220947   C472.953064,627.723145 470.910187,626.233887 466.830200,626.370178   C464.333252,626.453613 461.831543,626.398560 459.331970,626.398010   C395.175995,626.384827 331.016205,625.961060 266.866028,626.564514   C242.282394,626.795715 217.475830,606.123047 217.553955,577.057495   C217.808411,482.406921 217.642761,387.755219 217.658447,293.103973   C217.662277,269.969574 233.460617,250.112595 256.012573,245.148544   C260.363525,244.190842 264.928589,243.830307 269.395203,243.828232   C431.701996,243.753250 594.008850,243.726212 756.315674,243.770660   C782.526245,243.777847 801.028992,257.675751 807.682129,281.964325   C808.778015,285.964813 809.369263,290.060486 809.367798,294.260437   C809.334473,388.745056 809.350281,483.229675 809.326721,577.714294   C809.324646,585.861084 806.867554,593.419556 803.158203,600.999817  M546.271606,288.697754   C553.747314,285.049164 561.222961,281.400574 568.889038,277.659058   C567.082825,275.898315 565.328857,276.360107 563.722900,276.359650   C464.565155,276.331818 365.407379,276.342621 266.249664,276.267242   C262.158813,276.264130 258.773987,277.500000 255.694901,279.989197   C250.026581,284.571594 248.323959,290.732300 248.326523,297.732849   C248.360214,389.391388 248.344208,481.049896 248.352509,572.708435   C248.353821,587.186401 256.828949,595.618225 271.367889,595.622864   C307.364685,595.634277 343.370056,595.186279 379.353149,595.888489   C390.276123,596.101685 398.498871,594.237305 403.132568,583.681152   C403.390167,583.094299 403.974823,582.655640 404.384430,582.130188   C424.715485,556.051941 447.208008,532.046875 472.106262,510.233459   C505.991791,480.546295 542.558899,454.928436 583.355896,435.628357   C587.408875,433.710999 588.917175,431.049408 589.555420,427.012207   C593.405884,402.656097 615.068909,385.337799 642.747986,390.132904   C666.716858,394.285339 685.167297,416.528381 681.000122,445.416992   C678.220947,464.683136 666.759949,478.063263 647.570557,483.016205   C628.783386,487.865356 611.791443,484.468445 599.161987,468.296265   C597.036682,465.574799 595.365051,465.473419 592.521851,466.864410   C579.786804,473.094818 567.422913,480.004150 555.511414,487.651306   C511.456207,515.934753 472.515808,550.047852 439.246155,590.536682   C438.188171,591.824158 436.298950,592.933472 437.272766,595.412964   C438.715790,595.482666 440.190735,595.616211 441.665680,595.616272   C546.489685,595.622742 651.313721,595.591553 756.137756,595.649109   C769.372375,595.656372 777.901672,585.249695 777.860718,574.119446   C777.521362,481.962250 777.671448,389.803192 777.672058,297.644714   C777.672119,296.144897 777.724670,294.641052 777.636719,293.145905   C777.064697,283.423706 769.736633,276.392090 760.042725,276.335419   C749.877319,276.276001 739.705566,276.520752 729.546753,276.251587   C705.528381,275.615265 681.781799,277.772247 658.285095,282.701141   C616.343567,291.499237 577.205078,307.535400 540.455322,329.336731   C508.180328,348.483521 479.584778,372.345245 453.321503,399.103516   C449.843781,402.646790 449.038239,405.539062 450.460419,410.337097   C457.102173,432.745087 448.767944,454.209229 428.846588,465.060791   C412.380219,474.030273 395.511963,474.271729 379.802765,463.223053   C363.980408,452.094818 356.170197,436.537811 358.925323,417.065369   C363.372894,385.631134 393.240479,367.928284 423.195679,378.568848   C426.374939,379.698212 428.301910,379.249512 430.577240,376.805786   C463.914551,341.001251 502.292328,311.770844 546.271606,288.697754  M393.637115,436.886810   C403.905243,445.573975 417.383514,442.703613 422.402191,426.505981   C424.284882,420.429535 421.241394,413.288727 415.505676,409.017365   C409.630402,404.642059 402.457306,404.048462 396.857727,407.474152   C386.022858,414.102570 384.432739,426.360962 393.637115,436.886810  M648.729553,427.870514   C641.787415,418.877960 632.333313,416.798431 624.477295,422.536072   C617.235840,427.824860 614.998596,439.882172 619.906738,447.168304   C625.351257,455.250671 635.240112,457.828796 642.969604,453.181061   C651.618286,447.980652 654.188354,437.714020 648.729553,427.870514  z"/>
</svg>